<svg version="1.1" viewBox="0 0 179.784 61.488" xmlns="http://www.w3.org/2000/svg">
	<g transform="translate(-1.58934 8.46894)">
		<path d="m86.7059 21.2752v11.7693" style="fill:none;stroke-width:.5;stroke:#789298"/>
		<path d="m176.508 21.3371v27.7995" style="fill:none;stroke-width:.5;stroke:#789298"/>
		<path d="m143.87 21.399v12.0271" style="fill:none;stroke-width:.5;stroke:#789298"/>
		<path d="m71.0369 21.2752v12.2517" style="fill:none;stroke-width:.5;stroke:#789298"/>
		<path d="m54.117 17.1592-1.21059-13.1683" style="fill:none;stroke-dasharray:0.26458332, 0.26458332;stroke-width:.264583;stroke:#93186c"/>
		<path d="m78.4945 17.1656.103874-12.7752" style="fill:none;stroke-dasharray:0.26458332, 0.26458332;stroke-width:.264583;stroke:#93186c"/>
		<path d="m86.5666 17.1566 13.9488-13.0535" style="fill:none;stroke-dasharray:0.26458332, 0.26458332;stroke-width:.264583;stroke:#93186c"/>
		<path d="m102.824 17.1412 28.853-13.1155" style="fill:none;stroke-dasharray:0.26458332, 0.26458332;stroke-width:.264583;stroke:#93186c"/>
		<path d="m127.175 17.1402 4.04256-12.9497" style="fill:none;stroke-dasharray:0.26458332, 0.26458332;stroke-width:.264583;stroke:#fcb654"/>
		<path d="m159.692 17.184 10.6186-12.2872" style="fill:none;stroke-dasharray:0.26458332, 0.26458332;stroke-width:.264583;stroke:#fcb654"/>
		<path d="m17.7674 3.8478-3.22832 13.3004" style="fill:none;stroke-dasharray:0.26499999, 0.26499999;stroke-width:.265;stroke:#b01c2e"/>
		<text x="1.6132498" y="28.139036" style="fill:#b01c2e;font-family:'Century Gothic';font-size:11.1038px;letter-spacing:0px;line-height:125%;stroke-width:.693989px;word-spacing:0px" xml:space="preserve"><tspan x="1.6132498" y="28.139036" style="fill:#b01c2e;font-size:8.46667px;stroke-width:.693989px">2005</tspan></text>
		<path d="m2.35544 17.1578 2.0297 2.0297-2.0297 2.0297h22.3267l2.0297-2.0297-2.0297-2.0297h-22.3267" style="fill-opacity:.588235;fill-rule:evenodd;fill:#b01c2e;stroke-width:.40594px;stroke:#b01c2e"/>
		<path d="m26.7119 17.1578 2.0297 2.0297-2.0297 2.0297h6.0891l2.0297-2.0297-2.0297-2.0297z" style="fill:none;stroke-width:.40594px;stroke:#b01c2e"/>
		<path d="m34.8307 17.1578 2.0297 2.0297-2.0297 2.0297h6.0891l2.0297-2.0297-2.0297-2.0297z" style="fill:none;stroke-width:.40594px;stroke:#b01c2e"/>
		<text x="42.207272" y="28.139036" style="fill:#93186c;font-family:'Century Gothic';font-size:11.0535px;letter-spacing:0px;line-height:125%;stroke-width:.690843px;word-spacing:0px" xml:space="preserve"><tspan x="42.207272" y="28.139036" style="fill:#93186c;font-size:8.46667px;stroke-width:.690843px">2008</tspan></text>
		<path d="m42.9495 17.1578 2.0297 2.0297-2.0297 2.0297h22.3267l2.0297-2.0297-2.0297-2.0297h-22.3267" style="fill-opacity:.588235;fill-rule:evenodd;fill:#93186c;stroke-width:.40594px;stroke:#93186c"/>
		<path d="m67.3059 17.1578 2.0297 2.0297-2.0297 2.0297h6.0891l2.0297-2.0297-2.0297-2.0297z" style="fill:none;stroke-width:.40594px;stroke:#93186c"/>
		<path d="m75.4247 17.1578 2.0297 2.0297-2.0297 2.0297h6.0891l2.0297-2.0297-2.0297-2.0297h-3.04455z" style="fill-opacity:.588235;fill-rule:evenodd;fill:#93186c;stroke-width:.40594px;stroke:#93186c"/>
		<path d="m83.5435 17.1578 2.0297 2.0297-2.0297 2.0297h6.0891l2.0297-2.0297-2.0297-2.0297h-3.04455z" style="fill-opacity:.588235;fill-rule:evenodd;fill:#93186c;stroke-width:.40594px;stroke:#93186c"/>
		<path d="m91.6623 17.1578 2.0297 2.0297-2.0297 2.0297h6.0891l2.0297-2.0297-2.0297-2.0297z" style="fill:none;stroke-width:.40594px;stroke:#93186c"/>
		<path d="m99.7811 17.1578 2.0297 2.0297-2.0297 2.0297h6.0891l2.0297-2.0297-2.0297-2.0297h-3.04455z" style="fill-opacity:.588235;fill-rule:evenodd;fill:#93186c;stroke-width:.40594px;stroke:#93186c"/>
		<path d="m107.9 17.1578 2.0297 2.0297-2.0297 2.0297h6.0891l2.02971-2.0297-2.02971-2.0297z" style="fill:none;stroke-width:.40594px;stroke:#93186c"/>
		<text x="115.27574" y="28.139036" style="fill:#fcb654;font-family:'Century Gothic';font-size:11.1038px;letter-spacing:0px;line-height:125%;stroke-width:.693989px;word-spacing:0px" xml:space="preserve"><tspan x="115.27574" y="28.139036" style="fill:#fcb654;font-size:8.46667px;stroke-width:.693989px">2015</tspan></text>
		<path d="m116.019 17.1578 2.0297 2.0297-2.0297 2.0297h22.3267l2.0297-2.0297-2.0297-2.0297h-22.3267" style="fill-opacity:.588235;fill-rule:evenodd;fill:#fcb654;stroke-width:.406579;stroke:#fcb654"/>
		<path d="m140.375 17.1578 2.0297 2.0297-2.0297 2.0297h6.0891l2.0297-2.0297-2.0297-2.0297z" style="fill:none;stroke-width:.40594px;stroke:#fcb654"/>
		<path d="m148.494 17.1578 2.02971 2.0297-2.02971 2.0297h6.08911l2.0297-2.0297-2.0297-2.0297z" style="fill:none;stroke-width:.40594px;stroke:#fcb654"/>
		<path d="m156.613 17.1578 2.02969 2.0297-2.02969 2.0297h6.0891l2.0297-2.0297-2.0297-2.0297h-3.04455z" style="fill-opacity:.588235;fill-rule:evenodd;fill:#fcb654;stroke-width:.40594px;stroke:#fcb654"/>
		<path d="m164.732 17.1578 2.0297 2.0297-2.0297 2.0297h6.0891l2.0297-2.0297-2.0297-2.0297z" style="fill:none;stroke-width:.40594px;stroke:#fcb654"/>
		<path d="m172.85 17.1578 2.02969 2.0297-2.02969 2.0297h6.0891l2.02969-2.0297-2.02969-2.0297z" style="fill:none;stroke-width:.40594px;stroke:#fcb654"/>
		<text x="1.40951" y="-4.3053823" style="fill:#000000;font-family:'Century Gothic';font-size:6.12279px;letter-spacing:0px;line-height:125%;stroke-width:.382674px;word-spacing:0px" xml:space="preserve"><tspan x="1.40951" y="-4.3053823" style="font-family:'Century Gothic';font-size:5.10233px;stroke-width:.382674px">Bristol University</tspan><tspan x="1.40951" y="3.6367705" style="font-family:'Century Gothic';stroke-width:.382674px"/></text>
		<text x="41.439705" y="-4.3751407" style="fill:#000000;font-family:'Century Gothic';font-size:6.12279px;letter-spacing:0px;line-height:125%;stroke-width:.382674px;word-spacing:0px" xml:space="preserve"><tspan x="41.439705" y="-4.3751407" style="font-family:'Century Gothic';font-size:5.10233px;stroke-width:.382674px">Computershare</tspan></text>
		<text x="114.01865" y="-4.306252" style="fill:#000000;font-family:'Century Gothic';font-size:6.12279px;letter-spacing:0px;line-height:125%;stroke-width:.382674px;word-spacing:0px" xml:space="preserve"><tspan x="114.01865" y="-4.306252" style="font-family:'Century Gothic';font-size:5.10117px;stroke-width:.382674px">Alterian</tspan></text>
		<text x="41.600761" y="2.8897707" style="fill:#000000;font-family:'Century Gothic';font-size:2.11667px;letter-spacing:0px;line-height:125%;stroke-width:.264583px;word-spacing:0px" xml:space="preserve"><tspan x="41.600761" y="2.8897707" style="font-size:3.52778px;stroke-width:.264583px">System Tester</tspan></text>
		<text x="71.983131" y="2.8897707" style="fill:#000000;font-family:'Century Gothic';font-size:2.11667px;letter-spacing:0px;line-height:125%;stroke-width:.264583px;word-spacing:0px" xml:space="preserve"><tspan x="71.983131" y="2.8897707" style="font-size:3.52778px;stroke-width:.264583px">DevOps</tspan></text>
		<text x="93.337639" y="2.8897707" style="fill:#000000;font-family:'Century Gothic';font-size:2.11667px;letter-spacing:0px;line-height:125%;stroke-width:.264583px;word-spacing:0px" xml:space="preserve"><tspan x="93.337639" y="2.8897707" style="font-size:3.52778px;stroke-width:.264583px">Developer</tspan></text>
		<text x="119.40675" y="2.8897707" style="fill:#000000;font-family:'Century Gothic';font-size:2.11667px;letter-spacing:0px;line-height:125%;stroke-width:.264583px;word-spacing:0px" xml:space="preserve"><tspan x="119.40675" y="2.8897707" style="font-size:3.52778px;stroke-width:.264583px">Senior Developer</tspan></text>
		<text x="156.6156" y="3.5271134" style="fill:#000000;font-family:'Century Gothic';font-size:2.11667px;letter-spacing:0px;line-height:125%;stroke-width:.264583px;word-spacing:0px" xml:space="preserve"><tspan x="156.6156" y="3.5271134" style="font-size:3.52778px;stroke-width:.264583px">Web Architect</tspan></text>
		<text x="1.3981396" y="2.8897707" style="fill:#000000;font-family:'Century Gothic';font-size:2.11667px;letter-spacing:0px;line-height:125%;stroke-width:.264583px;word-spacing:0px" xml:space="preserve"><tspan x="1.3981396" y="2.8897707" style="font-size:3.52778px;stroke-width:.264583px">Computer Science</tspan></text>
		<g transform="matrix(1.51042 0 0 1.51042 -54.289 -12.0026)">
			<rect x="67.4852" y="29.8183" width="17.2107" height="2.62759" style="fill:#789298"/>
			<text x="68.369545" y="31.705677" style="fill:#ffffff;font-family:'Century Gothic';font-size:2.11667px;letter-spacing:0px;line-height:125%;stroke-width:.264583px;word-spacing:0px" xml:space="preserve"><tspan x="68.369545" y="31.705677" style="fill:#ffffff;stroke-width:.264583px">Started Rowing</tspan></text>
		</g>
		<g transform="matrix(1.51042 0 0 1.51042 -56.3998 -12.1946)">
			<rect x="131.394" y="29.9454" width="19.7411" height="2.62759" style="fill:#789298"/>
			<text x="132.15421" y="31.832758" style="fill:#ffffff;font-family:'Century Gothic';font-size:2.11667px;letter-spacing:0px;line-height:125%;stroke-width:.264583px;word-spacing:0px" xml:space="preserve"><tspan x="132.15421" y="31.832758" style="fill:#ffffff;stroke-width:.264583px">Started Coaching</tspan></text>
		</g>
		<g transform="matrix(1.51042 0 0 1.51042 -95.5002 -3.98068)">
			<rect x="158.257" y="29.8087" width="23.079" height="2.62759" style="fill:#789298"/>
			<text x="158.80124" y="31.696095" style="fill:#ffffff;font-family:'Century Gothic';font-size:2.11667px;letter-spacing:0px;line-height:125%;stroke-width:.264583px;word-spacing:0px" xml:space="preserve"><tspan x="158.80124" y="31.696095" style="fill:#ffffff;stroke-width:.264583px">Bristish Rowing Award</tspan></text>
		</g>
		<g transform="matrix(1.51042 0 0 1.51042 -95.3585 -5.74856)">
			<rect x="162.159" y="36.2807" width="19.1772" height="2.62759" style="fill:#789298"/>
			<text x="162.76543" y="38.354618" style="fill:#ffffff;font-family:'Century Gothic';font-size:2.11667px;letter-spacing:0px;line-height:125%;stroke-width:.264583px;word-spacing:0px" xml:space="preserve"><tspan x="162.76543" y="38.354618" style="fill:#ffffff;stroke-width:.264583px">Everested 8848m!</tspan></text>
		</g>
		<g transform="matrix(1.51042 0 0 1.51042 -44.7445 -21.7636)">
			<rect x="85.037" y="36.2807" width="17.2107" height="2.62759" style="fill:#789298"/>
			<text x="86.099182" y="38.182537" style="fill:#ffffff;font-family:'Century Gothic';font-size:2.11667px;letter-spacing:0px;line-height:125%;stroke-width:.264583px;word-spacing:0px" xml:space="preserve"><tspan x="86.099182" y="38.182537" style="fill:#ffffff;stroke-width:.264583px">Charity Trustee</tspan></text>
		</g>
	</g>
</svg>
